<svg width="16" height="17" viewBox="0 0 16 17" fill="none" xmlns="http://www.w3.org/2000/svg">
<path d="M9.88712 7.64423L7.06045 4.81756C6.99847 4.75507 6.92474 4.70548 6.8435 4.67163C6.76226 4.63779 6.67512 4.62036 6.58712 4.62036C6.49911 4.62036 6.41197 4.63779 6.33073 4.67163C6.24949 4.70548 6.17576 4.75507 6.11378 4.81756C5.98962 4.94247 5.91992 5.11144 5.91992 5.28756C5.91992 5.46368 5.98962 5.63265 6.11378 5.75756L8.47378 8.11756L6.11378 10.4776C5.98962 10.6025 5.91992 10.7714 5.91992 10.9476C5.91992 11.1237 5.98962 11.2927 6.11378 11.4176C6.17608 11.4793 6.24995 11.5282 6.33118 11.5614C6.4124 11.5946 6.49938 11.6114 6.58712 11.6109C6.67485 11.6114 6.76183 11.5946 6.84305 11.5614C6.92428 11.5282 6.99816 11.4793 7.06045 11.4176L9.88712 8.59089C9.9496 8.52892 9.9992 8.45518 10.033 8.37394C10.0669 8.2927 10.0843 8.20557 10.0843 8.11756C10.0843 8.02955 10.0669 7.94241 10.033 7.86118C9.9992 7.77994 9.9496 7.7062 9.88712 7.64423Z" fill="white"/>
</svg>
