<svg width="17" height="17" viewBox="0 0 17 17" fill="none" xmlns="http://www.w3.org/2000/svg">
<path d="M11.0081 7.99725L6.99892 3.99517C6.93307 3.92878 6.85473 3.87608 6.76841 3.84012C6.6821 3.80416 6.58951 3.78564 6.496 3.78564C6.4025 3.78564 6.30991 3.80416 6.2236 3.84012C6.13728 3.87608 6.05894 3.92878 5.99309 3.99517C5.86116 4.12788 5.78711 4.30741 5.78711 4.49454C5.78711 4.68167 5.86116 4.8612 5.99309 4.99392L9.49934 8.53558L5.99309 12.0418C5.86116 12.1746 5.78711 12.3541 5.78711 12.5412C5.78711 12.7283 5.86116 12.9079 5.99309 13.0406C6.05869 13.1075 6.13692 13.1608 6.22325 13.1972C6.30958 13.2337 6.40229 13.2527 6.496 13.2531C6.58972 13.2527 6.68243 13.2337 6.76876 13.1972C6.85509 13.1608 6.93332 13.1075 6.99892 13.0406L11.0081 9.0385C11.08 8.97217 11.1374 8.89167 11.1766 8.80206C11.2159 8.71246 11.2361 8.6157 11.2361 8.51788C11.2361 8.42005 11.2159 8.32329 11.1766 8.23369C11.1374 8.14408 11.08 8.06358 11.0081 7.99725Z" fill="url(#paint0_linear_636_785)"/>
<defs>
<linearGradient id="paint0_linear_636_785" x1="5.78711" y1="8.6473" x2="11.2361" y2="8.6473" gradientUnits="userSpaceOnUse">
<stop offset="1" stop-color="#A7EF50"/>
</linearGradient>
</defs>
</svg>
