<svg width="16" height="17" viewBox="0 0 16 17" fill="none" xmlns="http://www.w3.org/2000/svg">
<path d="M10.3592 8.02685L6.58584 4.26019C6.52387 4.1977 6.45013 4.14811 6.36889 4.11426C6.28765 4.08041 6.20052 4.06299 6.11251 4.06299C6.0245 4.06299 5.93736 4.08041 5.85612 4.11426C5.77488 4.14811 5.70115 4.1977 5.63917 4.26019C5.51501 4.3851 5.44531 4.55406 5.44531 4.73019C5.44531 4.90631 5.51501 5.07528 5.63917 5.20019L8.93917 8.53352L5.63917 11.8335C5.51501 11.9584 5.44531 12.1274 5.44531 12.3035C5.44531 12.4796 5.51501 12.6486 5.63917 12.7735C5.70092 12.8365 5.77455 12.8866 5.8558 12.921C5.93705 12.9553 6.0243 12.9732 6.11251 12.9735C6.20071 12.9732 6.28797 12.9553 6.36922 12.921C6.45047 12.8866 6.5241 12.8365 6.58584 12.7735L10.3592 9.00685C10.4268 8.94443 10.4808 8.86866 10.5178 8.78432C10.5547 8.69999 10.5738 8.60892 10.5738 8.51685C10.5738 8.42479 10.5547 8.33372 10.5178 8.24938C10.4808 8.16505 10.4268 8.08928 10.3592 8.02685Z" fill="#0A0A0A"/>
</svg>
