<svg width="18" height="18" viewBox="0 0 18 18" fill="none" xmlns="http://www.w3.org/2000/svg">
<path d="M11.3948 8.49676L7.38564 4.49468C7.31979 4.42829 7.24145 4.37559 7.15513 4.33963C7.06881 4.30367 6.97623 4.28516 6.88272 4.28516C6.78921 4.28516 6.69663 4.30367 6.61031 4.33963C6.524 4.37559 6.44565 4.42829 6.37981 4.49468C6.24788 4.6274 6.17383 4.80692 6.17383 4.99405C6.17383 5.18119 6.24788 5.36072 6.37981 5.49343L9.88606 9.0351L6.37981 12.5413C6.24788 12.6741 6.17383 12.8536 6.17383 13.0407C6.17383 13.2279 6.24788 13.4074 6.37981 13.5401C6.44541 13.607 6.52364 13.6603 6.60997 13.6967C6.6963 13.7332 6.78901 13.7522 6.88272 13.7526C6.97644 13.7522 7.06915 13.7332 7.15548 13.6967C7.24181 13.6603 7.32004 13.607 7.38564 13.5401L11.3948 9.53801C11.4667 9.47168 11.5241 9.39118 11.5633 9.30158C11.6026 9.21197 11.6228 9.11521 11.6228 9.01739C11.6228 8.91957 11.6026 8.8228 11.5633 8.7332C11.5241 8.6436 11.4667 8.56309 11.3948 8.49676Z" fill="#0A0A0A"/>
</svg>
